<?xml version="1.0" standalone="no"?>
<!DOCTYPE svg PUBLIC "-//W3C//DTD SVG 20010904//EN"
 "http://www.w3.org/TR/2001/REC-SVG-20010904/DTD/svg10.dtd">
<svg version="1.0" xmlns="http://www.w3.org/2000/svg"
 width="300.000000pt" height="300.000000pt" viewBox="0 0 300.000000 300.000000"
 preserveAspectRatio="xMidYMid meet">
<metadata>
Created by potrace 1.11, written by Peter Selinger 2001-2013
</metadata>
<g transform="translate(0.000000,300.000000) scale(0.100000,-0.100000)"
fill="#000000" stroke="none">
<path d="M170 2614 c-36 -7 -76 -17 -90 -22 -93 -37 -97 -146 -8 -252 80 -96
118 -158 118 -194 0 -20 9 -63 20 -96 14 -42 17 -66 11 -83 -5 -13 -7 -51 -4
-83 2 -33 6 -90 7 -129 5 -111 39 -169 129 -219 64 -35 145 -53 235 -52 70 1
91 -7 53 -19 -33 -10 -140 -84 -180 -123 -60 -59 -87 -119 -98 -215 -5 -40 -2
-53 21 -86 19 -26 26 -48 23 -67 -3 -19 6 -49 24 -85 19 -36 28 -66 25 -87 -2
-22 4 -41 21 -64 32 -42 44 -74 50 -123 8 -78 10 -82 67 -105 36 -14 62 -33
78 -56 28 -41 52 -51 148 -64 42 -5 83 -12 91 -15 40 -15 198 59 313 147 83
63 121 116 212 297 l67 134 76 -150 c75 -147 118 -216 153 -241 9 -7 23 -18
30 -25 29 -30 140 -99 202 -127 75 -34 113 -41 167 -29 20 5 61 11 89 14 63 6
82 16 110 56 12 17 47 42 76 56 63 30 65 31 70 86 7 69 14 89 45 131 21 29 29
52 29 80 0 25 10 58 26 86 14 24 24 58 24 75 -3 46 -2 49 22 75 50 54 14 209
-71 295 -40 42 -129 104 -178 126 -18 8 -33 16 -33 19 0 3 42 5 94 6 113 1
206 30 268 83 55 47 75 96 76 184 0 40 5 83 10 97 9 27 9 52 -2 115 -5 27 -2
52 8 76 8 19 17 61 20 93 3 44 11 65 29 85 13 14 33 40 43 56 10 17 34 50 54
75 67 83 79 163 31 210 -102 102 -439 78 -676 -49 -309 -165 -470 -323 -623
-611 -27 -52 -60 -120 -72 -150 -43 -106 -41 -104 -59 -67 -22 44 -64 49 -85
10 l-15 -28 -16 40 c-34 82 -118 251 -146 293 -16 24 -29 46 -29 49 0 12 -107
142 -164 199 -110 109 -262 213 -419 287 -165 78 -354 109 -497 81z"/>
<path d="M1310 2095 c0 -5 5 -17 10 -25 5 -8 10 -10 10 -5 0 6 -5 17 -10 25
-5 8 -10 11 -10 5z"/>
<path d="M1681 2084 c0 -11 3 -14 6 -6 3 7 2 16 -1 19 -3 4 -6 -2 -5 -13z"/>
<path d="M1671 2053 c-1 -6 -4 -20 -7 -30 -5 -17 -5 -17 6 0 6 10 9 23 6 30
-3 9 -5 9 -5 0z"/>
<path d="M1337 2009 c4 -13 8 -18 11 -10 2 7 -1 18 -6 23 -8 8 -9 4 -5 -13z"/>
<path d="M1646 1975 c-3 -9 -6 -22 -5 -28 0 -7 5 -1 10 12 5 13 8 26 5 28 -2
2 -6 -3 -10 -12z"/>
<path d="M1351 1970 c0 -8 4 -22 9 -30 12 -18 12 -2 0 25 -6 13 -9 15 -9 5z"/>
<path d="M1370 1911 c0 -6 4 -13 10 -16 6 -3 7 1 4 9 -7 18 -14 21 -14 7z"/>
<path d="M1621 1903 c-1 -6 -4 -20 -7 -30 -5 -17 -5 -17 6 0 6 10 9 23 6 30
-3 9 -5 9 -5 0z"/>
<path d="M1390 1851 c0 -6 4 -13 10 -16 6 -3 7 1 4 9 -7 18 -14 21 -14 7z"/>
<path d="M1596 1835 c-9 -26 -7 -32 5 -12 6 10 9 21 6 23 -2 3 -7 -2 -11 -11z"/>
<path d="M1410 1817 c0 -13 44 -87 53 -87 5 0 0 12 -11 28 -10 15 -24 36 -30
47 -6 11 -12 16 -12 12z"/>
<path d="M1565 1774 c-9 -15 -12 -23 -6 -20 11 7 35 46 28 46 -3 0 -12 -12
-22 -26z"/>
</g>
</svg>
