<?xml version="1.0" encoding="utf-8"?>
<!-- Generator: Adobe Illustrator 14.0.0, SVG Export Plug-In . SVG Version: 6.00 Build 43363)  -->
<!DOCTYPE svg PUBLIC "-//W3C//DTD SVG 1.1//EN" "http://www.w3.org/Graphics/SVG/1.1/DTD/svg11.dtd">
<svg version="1.1" id="Feather" xmlns="http://www.w3.org/2000/svg" xmlns:xlink="http://www.w3.org/1999/xlink" x="0px" y="0px"
	 width="364.5px" height="364.5px" viewBox="0 427.5 210.5 364.5" style="enable-background:new 0 427.5 210.5 364.5;"
	 xml:space="preserve">
<style type="text/css">
<![CDATA[
	.st0{opacity:0.35;fill:#BE202E;enable-background:new    ;}
	.st1{fill:#BE202E;}
	.st2{fill:url(#SVGID_1_);}
	.st3{fill:url(#SVGID_2_);}
	.st4{fill:url(#SVGID_3_);}
	.st5{fill:url(#SVGID_4_);}
	.st6{fill:url(#SVGID_5_);}
	.st7{fill:url(#SVGID_6_);}
	.st8{fill:url(#SVGID_7_);}
	.st9{fill:url(#SVGID_8_);}
	.st10{fill:url(#SVGID_9_);}
	.st11{fill:none;}
	.st12{fill:#6D6E71;}
	.st13{fill:url(#SVGID_10_);}
]]>
</style>
<linearGradient id="SVGID_1_" gradientUnits="userSpaceOnUse" x1="-7626.3296" y1="373.3027" x2="-7357.6123" y2="59.0845" gradientTransform="matrix(7.918876e-002 -0.1698 -0.1698 -7.918876e-002 805.634 -802.8683)">
	<stop  offset="0" style="stop-color:#F69923"/>
	<stop  offset="0.3123" style="stop-color:#F79A23"/>
	<stop  offset="0.8383" style="stop-color:#E97826"/>
</linearGradient>
<path class="st2" d="M155.7,434.2c-5.6,3.3-14.9,12.6-26,26.2l10.2,19.2c7.2-10.2,14.4-19.4,21.7-27.3c0.6-0.6,0.9-0.9,0.9-0.9
	c-0.3,0.3-0.6,0.6-0.9,0.9c-2.4,2.6-9.6,11-20.4,27.7c10.5-0.5,26.5-2.7,39.6-4.9c3.9-21.8-3.8-31.8-3.8-31.8
	S167.2,427.4,155.7,434.2z"/>
<path class="st11" d="M138.4,543.9c0.1,0,0.2,0,0.2,0l-1.5,0.2c-0.1,0-0.2,0.1-0.3,0.1C137.4,544.1,137.9,544,138.4,543.9z"/>
<path class="st11" d="M128,578.3c-0.8,0.2-1.7,0.3-2.5,0.5C126.3,578.7,127.2,578.5,128,578.3z"/>
<path class="st11" d="M57.3,655.6c0.1-0.3,0.2-0.6,0.3-0.9c2.2-5.9,4.5-11.7,6.7-17.3c2.5-6.3,4.9-12.4,7.3-18.3
	c2.5-6.2,5-12.2,7.5-18c2.6-6.1,5.1-12,7.6-17.6c2-4.6,4-9.1,6-13.4c0.7-1.4,1.3-2.9,2-4.3c1.3-2.8,2.6-5.5,3.9-8.2
	c1.2-2.5,2.3-4.9,3.5-7.3c0.4-0.8,0.8-1.6,1.1-2.4c0.1-0.1,0.1-0.3,0.2-0.4l-1.2,0.1l-1-2c-0.1,0.2-0.2,0.4-0.3,0.6
	c-1.8,3.6-3.6,7.1-5.3,10.8c-1,2.1-2,4.2-3,6.3c-2.8,5.8-5.5,11.7-8.2,17.7c-2.7,6-5.4,12-8,18.1c-2.6,5.9-5.1,11.9-7.6,17.8
	c-2.5,5.9-4.9,11.8-7.2,17.7c-2.5,6.1-4.8,12.2-7.2,18.2c-0.5,1.3-1,2.7-1.6,4c-1.9,4.8-3.7,9.6-5.4,14.3l1.6,3.1l1.4-0.2
	c0.1-0.1,0.1-0.3,0.2-0.4C52.9,667.5,55.1,661.5,57.3,655.6z"/>
<path class="st11" d="M124.8,578.9L124.8,578.9C124.8,578.9,124.8,578.9,124.8,578.9C124.8,578.9,124.8,578.9,124.8,578.9z"/>
<path class="st1" d="M121.4,595.7c-1.3,0.2-2.6,0.5-4,0.7c0,0,0,0,0,0c0.7-0.1,1.4-0.2,2-0.3S120.8,595.8,121.4,595.7z"/>
<path class="st0" d="M121.4,595.7c-1.3,0.2-2.6,0.5-4,0.7c0,0,0,0,0,0c0.7-0.1,1.4-0.2,2-0.3S120.8,595.8,121.4,595.7z"/>
<path class="st1" d="M124.8,578.9C124.8,578.9,124.8,578.9,124.8,578.9C124.8,578.9,124.8,578.9,124.8,578.9c0.2,0,0.4-0.1,0.6-0.1
	c0.9-0.1,1.7-0.3,2.5-0.5C127,578.5,125.9,578.7,124.8,578.9L124.8,578.9L124.8,578.9z"/>
<path class="st0" d="M124.8,578.9C124.8,578.9,124.8,578.9,124.8,578.9C124.8,578.9,124.8,578.9,124.8,578.9c0.2,0,0.4-0.1,0.6-0.1
	c0.9-0.1,1.7-0.3,2.5-0.5C127,578.5,125.9,578.7,124.8,578.9L124.8,578.9L124.8,578.9z"/>
<linearGradient id="SVGID_2_" gradientUnits="userSpaceOnUse" x1="-9615.1279" y1="408.0107" x2="-7697.9746" y2="408.0107" gradientTransform="matrix(7.918876e-002 -0.1698 -0.1698 -7.918876e-002 805.634 -802.8683)">
	<stop  offset="0.3233" style="stop-color:#9E2064"/>
	<stop  offset="0.6302" style="stop-color:#C92037"/>
	<stop  offset="0.7514" style="stop-color:#CD2335"/>
	<stop  offset="1" style="stop-color:#E97826"/>
</linearGradient>
<path class="st3" d="M109.8,529.3c3.1-5.8,6.2-11.4,9.4-17c3.3-5.7,6.6-11.3,10-16.6c0.2-0.3,0.4-0.6,0.6-1
	c3.3-5.3,6.7-10.3,10.1-15.2l-10.2-19.2c-0.8,0.9-1.5,1.9-2.3,2.9c-2.9,3.7-6,7.6-9.1,11.8c-3.5,4.7-7.2,9.7-10.8,15
	c-3.4,4.9-6.8,10-10.3,15.3c-2.9,4.5-5.9,9.1-8.8,13.9c-0.1,0.2-0.2,0.4-0.3,0.5l13.3,26.2C104.1,540.3,106.9,534.7,109.8,529.3z"/>
<linearGradient id="SVGID_3_" gradientUnits="userSpaceOnUse" x1="-9383.708" y1="215.6924" x2="-8241.2627" y2="215.6924" gradientTransform="matrix(7.918876e-002 -0.1698 -0.1698 -7.918876e-002 805.634 -802.8683)">
	<stop  offset="0" style="stop-color:#282662"/>
	<stop  offset="9.548389e-002" style="stop-color:#662E8D"/>
	<stop  offset="0.7882" style="stop-color:#9F2064"/>
	<stop  offset="0.9487" style="stop-color:#CD2032"/>
</linearGradient>
<path class="st4" d="M49.4,676.9c-1.8,4.8-3.5,9.7-5.3,14.8c0,0.1-0.1,0.1-0.1,0.2c-0.3,0.7-0.5,1.4-0.8,2.1
	c-1.2,3.4-2.2,6.4-4.6,13.4c3.9,1.8,7,6.5,10,11.8c-0.3-5.5-2.6-10.7-6.9-14.7c19.3,0.9,35.8-4,44.4-18.1c0.8-1.3,1.5-2.6,2.1-4
	c-3.9,4.9-8.7,7-17.8,6.5c0,0,0,0-0.1,0c0,0,0,0,0.1,0c13.4-6,20.1-11.7,26.1-21.3c1.4-2.3,2.8-4.7,4.2-7.5
	c-11.7,12-25.3,15.5-39.6,12.9l-10.7,1.2C50.1,675,49.8,676,49.4,676.9z"/>
<linearGradient id="SVGID_4_" gradientUnits="userSpaceOnUse" x1="-9507.4531" y1="425.9336" x2="-7590.3008" y2="425.9336" gradientTransform="matrix(7.918876e-002 -0.1698 -0.1698 -7.918876e-002 805.634 -802.8683)">
	<stop  offset="0.3233" style="stop-color:#9E2064"/>
	<stop  offset="0.6302" style="stop-color:#C92037"/>
	<stop  offset="0.7514" style="stop-color:#CD2335"/>
	<stop  offset="1" style="stop-color:#E97826"/>
</linearGradient>
<path class="st5" d="M54.4,652.8c2.3-6,4.7-12,7.2-18.2c2.3-5.9,4.8-11.7,7.2-17.7c2.5-5.9,5-11.9,7.6-17.8c2.6-6,5.3-12.1,8-18.1
	c2.7-5.9,5.4-11.8,8.2-17.7c1-2.1,2-4.2,3-6.3c1.8-3.6,3.5-7.2,5.3-10.8c0.1-0.2,0.2-0.4,0.3-0.6L88,519.7c-0.2,0.4-0.4,0.7-0.6,1.1
	c-3.1,5-6.2,10.2-9.2,15.5c-3.1,5.3-6,10.7-9,16.2c-2.5,4.6-4.9,9.3-7.2,14c-0.5,1-0.9,1.9-1.4,2.9c-2.9,5.9-5.5,11.7-7.9,17.2
	c-2.7,6.3-5,12.2-7.1,17.9c-1.4,3.7-2.6,7.3-3.7,10.8c-0.9,3-1.8,5.9-2.6,8.9c-2,6.9-3.7,13.9-5.1,20.8l13.3,26.3
	c1.8-4.7,3.6-9.5,5.4-14.3C53.4,655.6,53.9,654.2,54.4,652.8z"/>
<linearGradient id="SVGID_5_" gradientUnits="userSpaceOnUse" x1="-9367.6328" y1="399.9316" x2="-8360.1094" y2="399.9316" gradientTransform="matrix(7.918876e-002 -0.1698 -0.1698 -7.918876e-002 805.634 -802.8683)">
	<stop  offset="0" style="stop-color:#282662"/>
	<stop  offset="9.548389e-002" style="stop-color:#662E8D"/>
	<stop  offset="0.7882" style="stop-color:#9F2064"/>
	<stop  offset="0.9487" style="stop-color:#CD2032"/>
</linearGradient>
<path class="st6" d="M34,645.8c-1.7,8.4-2.9,16.8-3.5,25.1c0,0.3-0.1,0.6-0.1,0.9c-4.2-6.7-15.3-13.2-15.3-13.1
	c8,11.6,14,23,14.9,34.3c-4.3,0.9-10.1-0.4-16.9-2.9c7,6.5,12.3,8.3,14.4,8.7c-6.5,0.4-13.2,4.8-20,10c9.9-4,17.9-5.7,23.7-4.4
	c-9.1,25.8-18.2,54.3-27.4,84.5c2.8-0.8,4.5-2.7,5.4-5.3c1.6-5.5,12.4-41.4,29.4-88.6c0.5-1.3,1-2.7,1.5-4c0.1-0.4,0.3-0.8,0.4-1.1
	c1.8-5,3.6-10,5.6-15.2c0.4-1.2,0.9-2.3,1.3-3.5c0,0,0-0.1,0-0.1l-13.3-26.3C34.1,645.2,34,645.5,34,645.8z"/>
<linearGradient id="SVGID_6_" gradientUnits="userSpaceOnUse" x1="-9507.4541" y1="227.4336" x2="-7590.2988" y2="227.4336" gradientTransform="matrix(7.918876e-002 -0.1698 -0.1698 -7.918876e-002 805.634 -802.8683)">
	<stop  offset="0.3233" style="stop-color:#9E2064"/>
	<stop  offset="0.6302" style="stop-color:#C92037"/>
	<stop  offset="0.7514" style="stop-color:#CD2335"/>
	<stop  offset="1" style="stop-color:#E97826"/>
</linearGradient>
<path class="st7" d="M103.3,548.1c-0.4,0.8-0.8,1.6-1.1,2.4c-1.1,2.4-2.3,4.8-3.5,7.3c-1.3,2.7-2.6,5.4-3.9,8.2
	c-0.7,1.4-1.3,2.8-2,4.3c-2,4.3-4,8.8-6,13.4c-2.5,5.7-5.1,11.5-7.6,17.6c-2.5,5.8-5,11.8-7.5,18c-2.4,5.9-4.9,12-7.3,18.3
	c-2.2,5.6-4.4,11.4-6.7,17.3c-0.1,0.3-0.2,0.6-0.3,0.9c-2.2,5.9-4.5,11.9-6.7,18.1c-0.1,0.1-0.1,0.3-0.2,0.4l10.7-1.2
	c-0.2,0-0.4-0.1-0.6-0.1c12.8-1.6,29.9-11.2,40.9-23c5.1-5.4,9.7-11.9,13.9-19.4c3.2-5.6,6.1-11.8,9-18.7c2.5-6,4.9-12.5,7.2-19.6
	c-2.9,1.6-6.3,2.7-10,3.5c-0.6,0.1-1.3,0.3-2,0.4s-1.4,0.2-2,0.3l0,0l0,0c0,0,0,0,0,0c12-4.6,19.5-13.5,25-24.4
	c-3.1,2.1-8.3,5-14.4,6.3c-0.8,0.2-1.7,0.3-2.5,0.5c-0.2,0-0.4,0.1-0.6,0.1l0,0l0,0c0,0,0,0,0,0c0,0,0,0,0,0l0,0
	c4.1-1.7,7.7-3.7,10.7-6c0.6-0.5,1.3-1,1.9-1.5c0.9-0.8,1.8-1.6,2.6-2.5c0.5-0.6,1.1-1.1,1.6-1.8c1.2-1.4,2.3-2.9,3.3-4.6
	c0.3-0.5,0.6-1,0.9-1.6c0.4-0.8,0.8-1.5,1.1-2.3c1.7-3.4,3-6.4,4.1-9c0.5-1.3,1-2.5,1.4-3.7c0.2-0.4,0.3-0.9,0.5-1.3
	c0.4-1.3,0.8-2.4,1-3.4c0.4-1.5,0.6-2.6,0.8-3.5l0,0l0,0c-0.4,0.3-0.9,0.6-1.4,1c-3.6,2.2-9.8,4.1-14.8,5l9.8-1.1l-9.8,1.1
	c-0.1,0-0.2,0-0.2,0c-0.5,0.1-1,0.2-1.5,0.2c0.1,0,0.2-0.1,0.3-0.1l-33.7,3.7C103.4,547.8,103.4,548,103.3,548.1z"/>
<linearGradient id="SVGID_7_" gradientUnits="userSpaceOnUse" x1="-9626.3721" y1="237.2383" x2="-7709.2266" y2="237.2383" gradientTransform="matrix(7.918876e-002 -0.1698 -0.1698 -7.918876e-002 805.634 -802.8683)">
	<stop  offset="0.3233" style="stop-color:#9E2064"/>
	<stop  offset="0.6302" style="stop-color:#C92037"/>
	<stop  offset="0.7514" style="stop-color:#CD2335"/>
	<stop  offset="1" style="stop-color:#E97826"/>
</linearGradient>
<path class="st8" d="M141.2,480c-3,4.6-6.3,9.8-9.8,15.7c-0.2,0.3-0.4,0.6-0.6,0.9c-3,5.1-6.3,10.7-9.7,16.9c-2.9,5.3-6,11-9.2,17.1
	c-2.8,5.3-5.6,11-8.6,17l33.7-3.7c9.8-4.5,14.2-8.6,18.5-14.5c1.1-1.6,2.3-3.3,3.4-5.1c3.5-5.4,6.8-11.3,9.9-17.3
	c2.9-5.7,5.5-11.4,7.5-16.5c1.3-3.2,2.3-6.3,3-8.9c0.6-2.3,1.1-4.6,1.5-6.7C167.7,477.3,151.7,479.5,141.2,480z"/>
<path class="st1" d="M119.4,596.1c-0.7,0.1-1.4,0.2-2,0.3l0,0C118.1,596.3,118.8,596.2,119.4,596.1z"/>
<path class="st0" d="M119.4,596.1c-0.7,0.1-1.4,0.2-2,0.3l0,0C118.1,596.3,118.8,596.2,119.4,596.1z"/>
<linearGradient id="SVGID_8_" gradientUnits="userSpaceOnUse" x1="-9508.0439" y1="168.4248" x2="-7589.9375" y2="168.4248" gradientTransform="matrix(7.918876e-002 -0.1698 -0.1698 -7.918876e-002 805.634 -802.8683)">
	<stop  offset="0.3233" style="stop-color:#9E2064"/>
	<stop  offset="0.6302" style="stop-color:#C92037"/>
	<stop  offset="0.7514" style="stop-color:#CD2335"/>
	<stop  offset="1" style="stop-color:#E97826"/>
</linearGradient>
<path class="st9" d="M119.4,596.1c-0.7,0.1-1.4,0.2-2,0.3l0,0C118.1,596.3,118.8,596.2,119.4,596.1z"/>
<path class="st1" d="M124.8,578.9c0.2,0,0.4-0.1,0.6-0.1C125.2,578.8,125,578.9,124.8,578.9L124.8,578.9z"/>
<path class="st0" d="M124.8,578.9c0.2,0,0.4-0.1,0.6-0.1C125.2,578.8,125,578.9,124.8,578.9L124.8,578.9z"/>
<linearGradient id="SVGID_9_" gradientUnits="userSpaceOnUse" x1="-9507.9316" y1="175.1875" x2="-7590.0688" y2="175.1875" gradientTransform="matrix(7.918876e-002 -0.1698 -0.1698 -7.918876e-002 805.634 -802.8683)">
	<stop  offset="0.3233" style="stop-color:#9E2064"/>
	<stop  offset="0.6302" style="stop-color:#C92037"/>
	<stop  offset="0.7514" style="stop-color:#CD2335"/>
	<stop  offset="1" style="stop-color:#E97826"/>
</linearGradient>
<path class="st10" d="M124.8,578.9c0.2,0,0.4-0.1,0.6-0.1C125.2,578.8,125,578.9,124.8,578.9L124.8,578.9z"/>
<path class="st1" d="M124.8,578.9C124.8,578.9,124.8,578.9,124.8,578.9L124.8,578.9L124.8,578.9L124.8,578.9
	C124.8,578.9,124.8,578.9,124.8,578.9z"/>
<path class="st0" d="M124.8,578.9C124.8,578.9,124.8,578.9,124.8,578.9L124.8,578.9L124.8,578.9L124.8,578.9
	C124.8,578.9,124.8,578.9,124.8,578.9z"/>
<linearGradient id="SVGID_10_" gradientUnits="userSpaceOnUse" x1="-8437.6318" y1="176.5195" x2="-7999.458" y2="176.5195" gradientTransform="matrix(7.918876e-002 -0.1698 -0.1698 -7.918876e-002 805.634 -802.8683)">
	<stop  offset="0.3233" style="stop-color:#9E2064"/>
	<stop  offset="0.6302" style="stop-color:#C92037"/>
	<stop  offset="0.7514" style="stop-color:#CD2335"/>
	<stop  offset="1" style="stop-color:#E97826"/>
</linearGradient>
<path class="st13" d="M124.8,578.9C124.8,578.9,124.8,578.9,124.8,578.9L124.8,578.9L124.8,578.9L124.8,578.9
	C124.8,578.9,124.8,578.9,124.8,578.9z"/>
<path class="st12" d="M191.1,465.1v1h2.3v6.5h1.1v-6.5h2.3v-1H191.1z M204.4,465.1l-2.6,5.2l-2.6-5.2h-1.3v7.5h1v-6l2.6,5.2h0.7
	l2.6-5.2v6h1v-7.5H204.4z"/>
</svg>
